<svg width="201" height="201" viewBox="0 0 201 201" fill="none" xmlns="http://www.w3.org/2000/svg">
<circle cx="100.48" cy="100.067" r="95.3423" fill="url(#paint0_linear_7_124)" stroke="url(#paint1_linear_7_124)" stroke-width="9.4492"/>
<circle cx="100.48" cy="100.066" r="90.1812" stroke="url(#paint2_linear_7_124)" stroke-width="0.94492"/>
<g filter="url(#filter0_d_7_124)">
<path fill-rule="evenodd" clip-rule="evenodd" d="M137.088 57.1401C138.86 55.368 139.856 52.9646 139.856 50.4585C139.856 47.9524 138.86 45.5489 137.088 43.7769C135.316 42.0048 132.913 41.0093 130.407 41.0093C127.901 41.0093 125.497 42.0048 123.725 43.7769C121.953 45.5489 120.958 47.9524 120.958 50.4585C120.958 52.9646 121.953 55.368 123.725 57.1401C125.497 58.9121 127.901 59.9077 130.407 59.9077C132.913 59.9077 135.316 58.9121 137.088 57.1401ZM140.429 60.4808C141.411 59.4986 142.235 58.3871 142.882 57.1863C143.071 57.8565 143.224 58.5446 143.345 59.2452C144.032 63.2152 143.759 67.9328 142.758 73.0284C142.406 74.8207 140.667 75.9881 138.875 75.636C137.083 75.2838 135.915 73.5454 136.268 71.7532C136.93 68.3813 137.19 65.4294 137.09 62.9575C138.308 62.3063 139.435 61.475 140.429 60.4808ZM119.111 59.0196C116.993 60.426 114.737 62.1522 112.375 64.2059C108.656 67.4392 104.806 71.3711 100.989 75.8853C102.658 75.9235 104.342 75.9888 106.039 76.0777C122.053 76.917 136.568 80.0451 147.116 84.5332C152.377 86.7717 156.823 89.4207 159.967 92.4358C163.101 95.4423 165.249 99.1337 165.03 103.324C164.84 106.942 162.923 110.023 160.204 112.5C157.497 114.965 153.806 117.019 149.51 118.686C147.807 119.346 145.891 118.501 145.23 116.798C144.57 115.096 145.414 113.18 147.117 112.519C150.966 111.026 153.852 109.338 155.75 107.609C157.636 105.892 158.354 104.327 158.424 102.978C158.506 101.425 157.755 99.4792 155.388 97.2095C153.031 94.9484 149.373 92.6818 144.526 90.6196C134.86 86.5064 121.143 83.4928 105.693 82.6831C102.795 82.5312 99.9565 82.4519 97.1895 82.4612C96.7104 82.4628 96.2333 82.4667 95.7585 82.4729C93.8281 85.0584 91.9264 87.7839 90.0759 90.6334C88.2235 93.4859 86.5063 96.3333 84.9295 99.1489C86.1999 102.106 87.6059 105.109 89.1454 108.13C96.1689 121.915 104.506 133.222 112.201 140.383C113.936 141.998 115.612 143.376 117.205 144.516C116.569 146.145 116.233 147.893 116.233 149.675C116.233 150.419 116.292 151.158 116.406 151.884C113.535 150.2 110.604 147.932 107.695 145.225C99.2993 137.412 90.5325 125.422 83.2519 111.133C82.4828 109.624 81.7442 108.116 81.0366 106.612C77.5292 113.876 75.0415 120.745 73.6667 126.72C72.4853 131.854 72.1682 136.146 72.6112 139.383C73.0558 142.633 74.1881 144.384 75.4919 145.23C76.7333 146.037 78.6495 146.368 81.5457 145.617C84.4434 144.864 87.9571 143.106 91.8916 140.302C93.379 139.242 95.4442 139.588 96.5042 141.076C97.5642 142.563 97.2176 144.629 95.7301 145.689C91.4209 148.759 87.1641 150.992 83.2075 152.019C79.2493 153.046 75.2274 152.945 71.8895 150.778C68.3698 148.492 66.6467 144.584 66.0578 140.28C65.4672 135.964 65.9384 130.809 67.2207 125.236C69.0422 117.321 72.5862 108.195 77.6035 98.7647C75.6685 93.9778 74.0686 89.2969 72.8208 84.8266C69.3983 85.5474 66.2808 86.416 63.5304 87.4086C61.8774 88.0053 60.383 88.6374 59.0505 89.2952C58.4725 87.1483 57.3935 85.1531 55.8851 83.4822C57.5537 82.6451 59.3634 81.8806 61.2849 81.187C64.2818 80.1054 67.6213 79.1714 71.2383 78.4006C70.7176 75.9418 70.3182 73.5711 70.0435 71.3092C69.3536 65.6288 69.427 60.4493 70.4676 56.216C71.5052 51.9956 73.6284 48.2864 77.3679 46.381C78.7518 45.6759 80.2174 45.2947 81.7348 45.1809C87.2749 44.7654 93.3687 47.9765 99.0921 52.7252C100.498 53.8915 100.692 55.9765 99.5255 57.3822C98.3593 58.7879 96.2742 58.982 94.8686 57.8157C89.4467 53.3171 85.0876 51.5624 82.2295 51.7768C81.511 51.8307 80.9087 52.0005 80.3708 52.2745C78.9858 52.9802 77.675 54.6054 76.8908 57.795C76.1099 60.9718 75.9741 65.2782 76.6097 70.5117C76.8678 72.6372 77.2493 74.8852 77.7526 77.2341C82.3484 76.5561 87.275 76.1152 92.4277 75.9364C97.5549 69.3697 102.872 63.7033 108.035 59.2144C110.834 56.7805 113.658 54.6312 116.439 52.8676C116.824 55.0998 117.74 57.2107 119.111 59.0196ZM87.3484 82.8336C84.5803 83.0382 81.9149 83.3239 79.3711 83.6834C80.0775 86.156 80.9005 88.7078 81.8386 91.3182C82.7039 89.8896 83.6008 88.4595 84.5286 87.0309C85.4556 85.6034 86.3963 84.2036 87.3484 82.8336ZM137.088 156.357C138.861 154.585 139.856 152.181 139.856 149.675C139.856 147.169 138.861 144.766 137.088 142.994C135.316 141.222 132.913 140.226 130.407 140.226C127.901 140.226 125.497 141.222 123.725 142.994C121.953 144.766 120.958 147.169 120.958 149.675C120.958 152.181 121.953 154.585 123.725 156.357C125.497 158.129 127.901 159.124 130.407 159.124C132.913 159.124 135.316 158.129 137.088 156.357ZM133.313 135.802C135.719 136.306 137.965 137.431 139.821 139.079C140.018 136.372 139.939 133.429 139.622 130.329C138.523 119.569 134.479 106.18 127.891 92.4918C127.099 90.846 125.122 90.1539 123.477 90.946C121.831 91.738 121.139 93.7144 121.931 95.3602C128.284 108.561 132.04 121.2 133.042 131.001C133.217 132.713 133.305 134.315 133.313 135.802ZM54.8132 92.9798C54.8132 95.4859 53.8177 97.8894 52.0456 99.6614C50.2735 101.433 47.8701 102.429 45.364 102.429C42.8579 102.429 40.4545 101.433 38.6824 99.6614C36.9103 97.8894 35.9148 95.4859 35.9148 92.9798C35.9148 90.4737 36.9103 88.0703 38.6824 86.2982C40.4545 84.5262 42.8579 83.5306 45.364 83.5306C47.8701 83.5306 50.2735 84.5262 52.0456 86.2982C53.8177 88.0703 54.8132 90.4737 54.8132 92.9798ZM48.493 106.804C50.7822 106.286 52.9195 105.204 54.7023 103.643C56.3491 105.1 58.5532 106.572 61.311 107.993C62.9346 108.83 63.5727 110.824 62.7361 112.448C61.8995 114.072 59.9051 114.71 58.2814 113.873C54.291 111.817 50.9102 109.456 48.493 106.804Z" fill="white"/>
</g>
<defs>
<filter id="filter0_d_7_124" x="31.1902" y="36.2847" width="138.58" height="127.564" filterUnits="userSpaceOnUse" color-interpolation-filters="sRGB">
<feFlood flood-opacity="0" result="BackgroundImageFix"/>
<feColorMatrix in="SourceAlpha" type="matrix" values="0 0 0 0 0 0 0 0 0 0 0 0 0 0 0 0 0 0 127 0" result="hardAlpha"/>
<feOffset/>
<feGaussianBlur stdDeviation="2.3623"/>
<feComposite in2="hardAlpha" operator="out"/>
<feColorMatrix type="matrix" values="0 0 0 0 0.0121103 0 0 0 0 0.106232 0 0 0 0 0.356509 0 0 0 0.2 0"/>
<feBlend mode="normal" in2="BackgroundImageFix" result="effect1_dropShadow_7_124"/>
<feBlend mode="normal" in="SourceGraphic" in2="effect1_dropShadow_7_124" result="shape"/>
</filter>
<linearGradient id="paint0_linear_7_124" x1="100.332" y1="-80.189" x2="-84.718" y2="99.0231" gradientUnits="userSpaceOnUse">
<stop stop-color="#33D2FF"/>
<stop offset="0.537474" stop-color="#3D68DE"/>
<stop offset="1" stop-color="#9845E8"/>
</linearGradient>
<linearGradient id="paint1_linear_7_124" x1="100.48" y1="0" x2="100.48" y2="200.134" gradientUnits="userSpaceOnUse">
<stop stop-color="white" stop-opacity="0.3"/>
<stop offset="1" stop-color="white" stop-opacity="0.1"/>
</linearGradient>
<linearGradient id="paint2_linear_7_124" x1="100.48" y1="9.41284" x2="100.48" y2="190.72" gradientUnits="userSpaceOnUse">
<stop stop-color="white" stop-opacity="0.6"/>
<stop offset="1" stop-color="white" stop-opacity="0.3"/>
</linearGradient>
</defs>
</svg>
