<svg width="1429" height="643" viewBox="0 0 1429 643" fill="none" xmlns="http://www.w3.org/2000/svg">
<rect width="1429" height="643" rx="83" fill="url(#paint0_linear_7_122)"/>
<circle cx="405.067" cy="322.067" r="95.3423" fill="url(#paint1_linear_7_122)" stroke="url(#paint2_linear_7_122)" stroke-width="9.4492"/>
<circle cx="405.067" cy="322.066" r="90.1812" stroke="url(#paint3_linear_7_122)" stroke-width="0.94492"/>
<g filter="url(#filter0_d_7_122)">
<path fill-rule="evenodd" clip-rule="evenodd" d="M441.675 279.14C443.447 277.368 444.443 274.965 444.443 272.458C444.443 269.952 443.447 267.549 441.675 265.777C439.903 264.005 437.5 263.009 434.993 263.009C432.487 263.009 430.084 264.005 428.312 265.777C426.54 267.549 425.544 269.952 425.544 272.458C425.544 274.965 426.54 277.368 428.312 279.14C430.084 280.912 432.487 281.908 434.993 281.908C437.5 281.908 439.903 280.912 441.675 279.14ZM445.016 282.481C445.998 281.499 446.821 280.387 447.469 279.186C447.657 279.856 447.811 280.545 447.932 281.245C448.619 285.215 448.346 289.933 447.345 295.028C446.992 296.821 445.254 297.988 443.462 297.636C441.67 297.284 440.502 295.545 440.854 293.753C441.517 290.381 441.776 287.429 441.677 284.957C442.895 284.306 444.022 283.475 445.016 282.481ZM423.697 281.02C421.58 282.426 419.323 284.152 416.962 286.206C413.243 289.439 409.393 293.371 405.576 297.885C407.245 297.923 408.929 297.989 410.626 298.078C426.64 298.917 441.155 302.045 451.703 306.533C456.964 308.772 461.41 311.421 464.553 314.436C467.688 317.442 469.836 321.134 469.616 325.324C469.427 328.942 467.51 332.023 464.79 334.5C462.083 336.965 458.393 339.019 454.096 340.686C452.393 341.346 450.477 340.501 449.817 338.798C449.156 337.096 450.001 335.18 451.704 334.519C455.553 333.026 458.438 331.338 460.337 329.609C462.223 327.892 462.94 326.327 463.011 324.978C463.092 323.425 462.341 321.479 459.975 319.209C457.617 316.948 453.96 314.682 449.113 312.62C439.446 308.506 425.729 305.493 410.28 304.683C407.382 304.531 404.543 304.452 401.776 304.461C401.297 304.463 400.82 304.467 400.345 304.473C398.415 307.058 396.513 309.784 394.663 312.633C392.81 315.486 391.093 318.333 389.516 321.149C390.787 324.106 392.193 327.109 393.732 330.13C400.756 343.915 409.093 355.222 416.787 362.383C418.523 363.998 420.198 365.376 421.792 366.516C421.156 368.145 420.82 369.893 420.82 371.675C420.82 372.419 420.878 373.158 420.993 373.884C418.122 372.2 415.191 369.932 412.281 367.225C403.886 359.412 395.119 347.422 387.839 333.133C387.069 331.624 386.331 330.116 385.623 328.612C382.116 335.876 379.628 342.745 378.253 348.72C377.072 353.854 376.755 358.146 377.198 361.383C377.642 364.633 378.775 366.384 380.079 367.23C381.32 368.037 383.236 368.368 386.132 367.617C389.03 366.864 392.544 365.106 396.478 362.302C397.966 361.242 400.031 361.588 401.091 363.076C402.151 364.563 401.804 366.629 400.317 367.689C396.008 370.759 391.751 372.992 387.794 374.019C383.836 375.046 379.814 374.945 376.476 372.778C372.956 370.492 371.233 366.584 370.644 362.28C370.054 357.964 370.525 352.809 371.807 347.236C373.629 339.321 377.173 330.195 382.19 320.765C380.255 315.978 378.655 311.297 377.407 306.827C373.985 307.547 370.867 308.416 368.117 309.409C366.464 310.005 364.97 310.637 363.637 311.295C363.059 309.148 361.98 307.153 360.472 305.482C362.14 304.645 363.95 303.881 365.872 303.187C368.869 302.105 372.208 301.171 375.825 300.401C375.304 297.942 374.905 295.571 374.63 293.309C373.94 287.629 374.014 282.449 375.054 278.216C376.092 273.996 378.215 270.286 381.955 268.381C383.338 267.676 384.804 267.295 386.322 267.181C391.862 266.765 397.955 269.977 403.679 274.725C405.084 275.892 405.279 277.977 404.112 279.382C402.946 280.788 400.861 280.982 399.455 279.816C394.033 275.317 389.674 273.562 386.816 273.777C386.098 273.831 385.495 274 384.957 274.275C383.572 274.98 382.262 276.605 381.478 279.795C380.697 282.972 380.561 287.278 381.196 292.512C381.454 294.637 381.836 296.885 382.339 299.234C386.935 298.556 391.862 298.115 397.014 297.936C402.142 291.37 407.459 285.703 412.622 281.214C415.421 278.781 418.245 276.631 421.026 274.868C421.411 277.1 422.326 279.211 423.697 281.02ZM391.935 304.834C389.167 305.038 386.502 305.324 383.958 305.683C384.664 308.156 385.487 310.708 386.425 313.318C387.291 311.89 388.187 310.46 389.115 309.031C390.042 307.603 390.983 306.204 391.935 304.834ZM441.675 378.357C443.447 376.585 444.443 374.181 444.443 371.675C444.443 369.169 443.447 366.766 441.675 364.994C439.903 363.222 437.5 362.226 434.994 362.226C432.487 362.226 430.084 363.222 428.312 364.994C426.54 366.766 425.544 369.169 425.544 371.675C425.544 374.181 426.54 376.585 428.312 378.357C430.084 380.129 432.487 381.124 434.994 381.124C437.5 381.124 439.903 380.129 441.675 378.357ZM437.9 357.802C440.305 358.306 442.552 359.431 444.407 361.079C444.604 358.372 444.526 355.429 444.209 352.329C443.109 341.569 439.065 328.18 432.478 314.492C431.685 312.846 429.709 312.154 428.063 312.946C426.417 313.738 425.725 315.714 426.517 317.36C432.87 330.561 436.627 343.2 437.629 353.001C437.803 354.713 437.892 356.315 437.9 357.802ZM359.4 314.98C359.4 317.486 358.404 319.889 356.632 321.661C354.86 323.433 352.457 324.429 349.951 324.429C347.445 324.429 345.041 323.433 343.269 321.661C341.497 319.889 340.501 317.486 340.501 314.98C340.501 312.474 341.497 310.07 343.269 308.298C345.041 306.526 347.445 305.531 349.951 305.531C352.457 305.531 354.86 306.526 356.632 308.298C358.404 310.07 359.4 312.474 359.4 314.98ZM353.08 328.804C355.369 328.286 357.506 327.204 359.289 325.643C360.936 327.1 363.14 328.572 365.898 329.993C367.521 330.83 368.159 332.824 367.323 334.448C366.486 336.072 364.492 336.71 362.868 335.873C358.878 333.817 355.497 331.456 353.08 328.804Z" fill="white"/>
</g>
<path d="M561.498 337.096V321.373H584.587C587.609 321.373 590.347 320.759 592.802 319.531C595.258 318.304 597.194 316.557 598.61 314.29C600.027 311.93 600.735 309.097 600.735 305.791C600.735 302.581 600.027 299.795 598.61 297.434C597.194 295.073 595.258 293.279 592.802 292.051C590.347 290.824 587.609 290.21 584.587 290.21H561.498V274.487H586.57C592.897 274.487 598.563 275.761 603.568 278.311C608.667 280.861 612.681 284.497 615.608 289.218C618.536 293.845 619.999 299.37 619.999 305.791C619.999 312.213 618.536 317.784 615.608 322.506C612.681 327.133 608.667 330.722 603.568 333.272C598.563 335.821 592.897 337.096 586.57 337.096H561.498ZM547.333 374.067V274.487H566.597V374.067H547.333ZM659.343 375.483C652.166 375.483 645.792 373.972 640.22 370.951C634.648 367.834 630.21 363.585 626.905 358.202C623.694 352.819 622.089 346.681 622.089 339.787C622.089 332.988 623.647 326.944 626.763 321.656C629.974 316.273 634.318 312.024 639.795 308.908C645.272 305.697 651.363 304.092 658.068 304.092C664.678 304.092 670.486 305.602 675.491 308.624C680.59 311.552 684.557 315.612 687.39 320.806C690.317 325.906 691.781 331.713 691.781 338.229C691.781 339.457 691.686 340.732 691.497 342.054C691.403 343.282 691.167 344.698 690.789 346.303L633.279 346.445V332.563L682.149 332.422L674.641 338.229C674.452 334.169 673.697 330.769 672.375 328.03C671.147 325.292 669.306 323.214 666.85 321.798C664.489 320.287 661.562 319.531 658.068 319.531C654.385 319.531 651.174 320.381 648.436 322.081C645.697 323.687 643.572 326 642.061 329.022C640.645 331.949 639.937 335.444 639.937 339.504C639.937 343.659 640.692 347.295 642.203 350.411C643.808 353.433 646.075 355.794 649.002 357.494C651.93 359.099 655.329 359.902 659.201 359.902C662.695 359.902 665.859 359.335 668.692 358.202C671.525 356.974 673.98 355.18 676.058 352.819L686.965 363.726C683.659 367.598 679.599 370.526 674.783 372.509C670.061 374.492 664.914 375.483 659.343 375.483ZM733.145 375.483C725.968 375.483 719.594 373.972 714.022 370.951C708.451 367.834 704.012 363.585 700.707 358.202C697.496 352.819 695.891 346.681 695.891 339.787C695.891 332.988 697.449 326.944 700.565 321.656C703.776 316.273 708.12 312.024 713.597 308.908C719.074 305.697 725.165 304.092 731.87 304.092C738.48 304.092 744.288 305.602 749.293 308.624C754.393 311.552 758.359 315.612 761.192 320.806C764.119 325.906 765.583 331.713 765.583 338.229C765.583 339.457 765.488 340.732 765.3 342.054C765.205 343.282 764.969 344.698 764.591 346.303L707.081 346.445V332.563L755.951 332.422L748.443 338.229C748.254 334.169 747.499 330.769 746.177 328.03C744.949 325.292 743.108 323.214 740.652 321.798C738.292 320.287 735.364 319.531 731.87 319.531C728.187 319.531 724.976 320.381 722.238 322.081C719.499 323.687 717.375 326 715.864 329.022C714.447 331.949 713.739 335.444 713.739 339.504C713.739 343.659 714.494 347.295 716.005 350.411C717.611 353.433 719.877 355.794 722.804 357.494C725.732 359.099 729.132 359.902 733.003 359.902C736.497 359.902 739.661 359.335 742.494 358.202C745.327 356.974 747.782 355.18 749.86 352.819L760.767 363.726C757.462 367.598 753.401 370.526 748.585 372.509C743.863 374.492 738.717 375.483 733.145 375.483ZM774.226 374.067V305.65H792.782V374.067H774.226ZM792.782 336.246L785.558 331.43C786.408 323.025 788.863 316.415 792.924 311.599C796.984 306.688 802.839 304.233 810.488 304.233C813.794 304.233 816.768 304.8 819.412 305.933C822.056 306.972 824.465 308.719 826.637 311.174L815.021 324.489C813.982 323.356 812.708 322.506 811.197 321.939C809.78 321.373 808.128 321.09 806.239 321.09C802.273 321.09 799.015 322.364 796.465 324.914C794.01 327.369 792.782 331.147 792.782 336.246ZM848.96 337.096V321.373H872.049C875.071 321.373 877.809 320.759 880.265 319.531C882.72 318.304 884.656 316.557 886.072 314.29C887.489 311.93 888.197 309.097 888.197 305.791C888.197 302.581 887.489 299.795 886.072 297.434C884.656 295.073 882.72 293.279 880.265 292.051C877.809 290.824 875.071 290.21 872.049 290.21H848.96V274.487H874.032C880.359 274.487 886.025 275.761 891.03 278.311C896.129 280.861 900.143 284.497 903.07 289.218C905.998 293.845 907.461 299.37 907.461 305.791C907.461 312.213 905.998 317.784 903.07 322.506C900.143 327.133 896.129 330.722 891.03 333.272C886.025 335.821 880.359 337.096 874.032 337.096H848.96ZM834.795 374.067V274.487H854.059V374.067H834.795ZM942.697 375.483C936.464 375.483 930.846 373.925 925.841 370.809C920.836 367.693 916.917 363.443 914.084 358.06C911.251 352.678 909.834 346.634 909.834 339.929C909.834 333.13 911.251 327.039 914.084 321.656C916.917 316.273 920.836 312.024 925.841 308.908C930.846 305.791 936.464 304.233 942.697 304.233C947.608 304.233 951.999 305.225 955.871 307.208C959.742 309.191 962.811 311.977 965.078 315.565C967.439 319.059 968.713 323.025 968.902 327.464V352.111C968.713 356.644 967.439 360.657 965.078 364.151C962.811 367.645 959.742 370.431 955.871 372.509C951.999 374.492 947.608 375.483 942.697 375.483ZM946.097 358.344C951.29 358.344 955.493 356.644 958.704 353.244C961.914 349.75 963.52 345.265 963.52 339.787C963.52 336.199 962.764 333.035 961.253 330.297C959.837 327.464 957.806 325.292 955.162 323.781C952.613 322.176 949.591 321.373 946.097 321.373C942.697 321.373 939.675 322.176 937.031 323.781C934.481 325.292 932.451 327.464 930.94 330.297C929.523 333.035 928.815 336.199 928.815 339.787C928.815 343.47 929.523 346.728 930.94 349.561C932.451 352.3 934.481 354.472 937.031 356.077C939.675 357.588 942.697 358.344 946.097 358.344ZM962.528 374.067V355.652L965.503 338.938L962.528 322.506V305.65H980.943V374.067H962.528ZM1023.99 375.483C1017 375.483 1010.72 373.925 1005.15 370.809C999.578 367.693 995.187 363.443 991.976 358.06C988.765 352.678 987.16 346.634 987.16 339.929C987.16 333.13 988.765 327.039 991.976 321.656C995.187 316.273 999.578 312.024 1005.15 308.908C1010.82 305.697 1017.1 304.092 1023.99 304.092C1029.37 304.092 1034.33 305.083 1038.86 307.066C1043.4 309.049 1047.31 311.882 1050.62 315.565L1038.72 327.606C1036.93 325.622 1034.75 324.111 1032.2 323.073C1029.75 322.034 1027.01 321.515 1023.99 321.515C1020.59 321.515 1017.52 322.317 1014.78 323.923C1012.14 325.434 1010.01 327.558 1008.41 330.297C1006.9 332.941 1006.14 336.105 1006.14 339.787C1006.14 343.376 1006.9 346.587 1008.41 349.42C1010.01 352.158 1012.14 354.33 1014.78 355.936C1017.52 357.447 1020.59 358.202 1023.99 358.202C1027.11 358.202 1029.89 357.683 1032.35 356.644C1034.9 355.511 1037.07 353.905 1038.86 351.828L1050.9 363.868C1047.41 367.645 1043.4 370.526 1038.86 372.509C1034.33 374.492 1029.37 375.483 1023.99 375.483ZM1100.79 374.067L1074.3 338.796L1100.65 305.65H1122.04L1091.16 343.045L1091.87 333.98L1123.45 374.067H1100.79ZM1057.16 374.067V271.654H1075.72V374.067H1057.16Z" fill="#031B5B"/>
<defs>
<filter id="filter0_d_7_122" x="335.777" y="258.285" width="138.58" height="127.564" filterUnits="userSpaceOnUse" color-interpolation-filters="sRGB">
<feFlood flood-opacity="0" result="BackgroundImageFix"/>
<feColorMatrix in="SourceAlpha" type="matrix" values="0 0 0 0 0 0 0 0 0 0 0 0 0 0 0 0 0 0 127 0" result="hardAlpha"/>
<feOffset/>
<feGaussianBlur stdDeviation="2.3623"/>
<feComposite in2="hardAlpha" operator="out"/>
<feColorMatrix type="matrix" values="0 0 0 0 0.0121103 0 0 0 0 0.106232 0 0 0 0 0.356509 0 0 0 0.2 0"/>
<feBlend mode="normal" in2="BackgroundImageFix" result="effect1_dropShadow_7_122"/>
<feBlend mode="normal" in="SourceGraphic" in2="effect1_dropShadow_7_122" result="shape"/>
</filter>
<linearGradient id="paint0_linear_7_122" x1="714.5" y1="0" x2="714.5" y2="643" gradientUnits="userSpaceOnUse">
<stop stop-color="#FAFCFF"/>
<stop offset="1" stop-color="#EDE8FF"/>
</linearGradient>
<linearGradient id="paint1_linear_7_122" x1="404.918" y1="141.811" x2="219.869" y2="321.023" gradientUnits="userSpaceOnUse">
<stop stop-color="#33D2FF"/>
<stop offset="0.537474" stop-color="#3D68DE"/>
<stop offset="1" stop-color="#9845E8"/>
</linearGradient>
<linearGradient id="paint2_linear_7_122" x1="405.067" y1="222" x2="405.067" y2="422.134" gradientUnits="userSpaceOnUse">
<stop stop-color="white" stop-opacity="0.3"/>
<stop offset="1" stop-color="white" stop-opacity="0.1"/>
</linearGradient>
<linearGradient id="paint3_linear_7_122" x1="405.067" y1="231.413" x2="405.067" y2="412.72" gradientUnits="userSpaceOnUse">
<stop stop-color="white" stop-opacity="0.6"/>
<stop offset="1" stop-color="white" stop-opacity="0.3"/>
</linearGradient>
</defs>
</svg>
